<svg xmlns:xlink="http://www.w3.org/1999/xlink" preserveAspectRatio="xMidYMid meet" data-bbox="20 33.162 160 133.738" xmlns="http://www.w3.org/2000/svg" width="200" height="200" viewBox="20 33.162 160 133.738" data-type="color" role="presentation" aria-hidden="true"><defs><style>#comp-klin8tnu svg [data-color="1"] {fill: #E87700;}</style></defs>
    <g>
        <path fill="#E87700" d="M180 53.1c0-3.5-1.4-6.7-3.9-9.1l-7.6-7.3c-5-4.8-13-4.7-17.9.2l-7.9 7.9c-.1-.1-.1-.2-.2-.3-7.3-7.3-17-11.3-27.4-11.3H58.7C37.4 33.1 20 50.5 20 71.8v56.4c0 21.3 17.4 38.7 38.7 38.7h56.4c21.3 0 38.7-17.4 38.7-38.7V84.3l22.4-22.1c2.5-2.4 3.8-5.6 3.8-9.1zm-22.5 19.8l-17.6-17.6 5.4-5.4L163 67.6l-5.5 5.3zm-56.2 55.4l-17.2-17.2L136 59.2l17.6 17.6-52.3 51.5zm-31.7 5.8l8.1 8.1-5.9 3.1c-2 1-3.9.3-4.9-.8-1-1.1-1.7-3-.5-4.9l3.2-5.5zm13.2 5.4l-10.3-10.3 8.3-13.7L97.3 132l-14.5 7.5zm65.5-11.3c0 18.3-14.9 33.2-33.2 33.2H58.7c-18.3 0-33.2-14.9-33.2-33.2V71.8c0-18.3 14.9-33.2 33.2-33.2h56.4c8.9 0 17.2 3.5 23.5 9.7.1.1.2.1.3.2l-8.5 8.5H47.6c-1.5 0-2.7 1.2-2.7 2.7s1.2 2.7 2.7 2.7H125l-10.1 10.1H73.1c-1.5 0-2.7 1.2-2.7 2.7 0 1.5 1.2 2.7 2.7 2.7h36.4l-11 11H47.6c-1.5 0-2.7 1.2-2.7 2.7s1.2 2.7 2.7 2.7h45.3l-14.6 14.6c-.2.2-.3.3-.4.5l-16.2 26.9c-2.3 3.8-1.8 8.3 1.2 11.5 1.9 2 4.4 3.1 6.9 3.1 1.5 0 3-.4 4.5-1.1l26.4-13.6c.2-.1.5-.3.7-.5l47-46.3v38.8zm24-69.8l-5.4 5.3L149.2 46l5.3-5.3c2.8-2.8 7.4-2.8 10.2-.1l7.6 7.3c1.4 1.4 2.2 3.2 2.2 5.2s-.8 3.9-2.2 5.3z" data-color="1"></path>
    </g>
</svg>