<svg xmlns:xlink="http://www.w3.org/1999/xlink" preserveAspectRatio="xMidYMid meet" data-bbox="55 63.5 90.001 73" viewBox="55 63.5 90.001 73" height="200" width="200" xmlns="http://www.w3.org/2000/svg" data-type="color" role="presentation" aria-hidden="true" aria-label=""><defs><style>#comp-klin8tnk svg [data-color="1"] {fill: #E87700;}</style></defs>
    <g>
        <path d="M140.318 70.246l-51.435-.194-6.929-6.078a1.915 1.915 0 0 0-1.261-.474H59.69c-2.587 0-4.69 2.09-4.69 4.66v63.681c0 2.569 2.103 4.659 4.69 4.659h80.621c2.587 0 4.69-2.09 4.69-4.659V74.906c-.001-2.57-2.104-4.66-4.683-4.66zm-.008 62.464H59.69a.884.884 0 0 1-.876-.869V68.16c0-.471.402-.87.876-.87h20.283l6.924 6.076c.345.304.792.473 1.254.474l52.16.196c.474 0 .876.399.876.87v5.573H74.566c-4.801 0-8.707 3.882-8.707 8.654v18.538c0 1.046.854 1.895 1.907 1.895a1.902 1.902 0 0 0 1.907-1.895V89.134c0-2.682 2.195-4.864 4.893-4.864h66.621v47.571a.885.885 0 0 1-.877.869z" fill="#E87700" data-color="1"></path>
        <path d="M100 91.996c-8.694 0-15.767 7.033-15.767 15.675s7.073 15.673 15.767 15.673 15.767-7.031 15.767-15.673S108.694 91.996 100 91.996zm0 27.558c-6.591 0-11.954-5.33-11.954-11.882 0-6.554 5.362-11.885 11.954-11.885s11.954 5.33 11.954 11.885c0 6.552-5.363 11.882-11.954 11.882z" fill="#E87700" data-color="1"></path>
        <path d="M102.877 107.092l-.971.998v-6.602c0-1.046-.854-1.895-1.907-1.895s-1.907.849-1.907 1.895v6.602l-.971-.998a1.918 1.918 0 0 0-2.696-.044 1.887 1.887 0 0 0-.045 2.68l4.248 4.368c.004.004.01.005.014.009.167.168.366.303.586.4.01.004.017.014.027.018a1.91 1.91 0 0 0 1.486 0c.01-.004.017-.014.027-.018a1.9 1.9 0 0 0 .586-.4c.004-.004.01-.005.014-.009l4.248-4.368a1.886 1.886 0 0 0-.045-2.68 1.916 1.916 0 0 0-2.694.044z" fill="#E87700" data-color="1"></path>
    </g>
</svg>