<svg xmlns:xlink="http://www.w3.org/1999/xlink" preserveAspectRatio="xMidYMid meet" data-bbox="10 49.5 180 101" viewBox="10 49.5 180 101" height="200" width="200" xmlns="http://www.w3.org/2000/svg" data-type="color" role="presentation" aria-hidden="true" aria-label=""><defs><style>#comp-klin8to2 svg [data-color="1"] {fill: #E87700;}</style></defs>
    <g>
        <path d="M162.254 64.751H141.4V49.5H41.5v21.531H10v6.28h37.8V55.78h87.3v75.358H87.925c-1.988-5.542-7.23-9.833-13.646-9.833s-11.658 4.023-13.646 9.833H47.8v-8.074h-6.3v15.251h19.258c.985 6.95 6.981 12.185 14.052 12.185 7.16 0 13.157-5.235 14.052-12.185h57.998c.985 6.95 6.981 12.185 14.052 12.185 7.16 0 13.157-5.235 14.052-12.185H190V96.162c-.537-19.045-11.188-31.411-27.746-31.411zM73.99 143.787c-4.23 0-7.74-3.499-7.74-7.715 0-4.216 3.51-7.715 7.74-7.715s7.74 3.499 7.74 7.715c0 4.306-3.42 7.715-7.74 7.715zm86.49 0c-4.23 0-7.74-3.499-7.74-7.715 0-4.216 3.51-7.715 7.74-7.715s7.74 3.499 7.74 7.715c.09 4.306-3.42 7.715-7.74 7.715zm22.502-11.752h-8.986c-1.997-5.603-7.262-9.941-13.707-9.941-6.263 0-11.71 4.067-13.707 9.941H140.5V71.031h21.15c13.071 0 21.15 9.67 21.15 25.215v35.789h.182zM42.476 97.047H15.4v-6.28h26.1v-6.28h6.3v12.56h-5.324zm0 18.84H19.9v-6.28h21.6v-6.28h6.3v12.56h-5.324z" fill="#E87700" data-color="1"></path>
    </g>
</svg>